<?xml version="1.0" standalone="no"?>
<!DOCTYPE svg PUBLIC "-//W3C//DTD SVG 20010904//EN"
 "http://www.w3.org/TR/2001/REC-SVG-20010904/DTD/svg10.dtd">
<svg version="1.0" xmlns="http://www.w3.org/2000/svg"
 width="200.000000pt" height="200.000000pt" viewBox="0 0 200.000000 200.000000"
 preserveAspectRatio="xMidYMid meet">

<g transform="translate(0.000000,200.000000) scale(0.100000,-0.100000)"
fill="#000000" stroke="none">
<path d="M150 1110 c0 -5 23 -10 50 -10 28 0 50 5 50 10 0 6 -22 10 -50 10
-27 0 -50 -4 -50 -10z"/>
<path d="M326 1104 c-30 -30 -12 -64 35 -64 47 0 89 -12 89 -26 0 -20 -48 -29
-94 -16 -47 12 -60 7 -32 -14 43 -31 156 -8 156 31 0 23 -42 45 -87 45 -44 0
-65 16 -42 31 19 12 66 11 91 -2 27 -14 38 -1 14 17 -27 19 -110 18 -130 -2z"/>
<path d="M520 1110 c0 -5 16 -10 35 -10 l35 0 0 -49 c0 -54 7 -81 21 -81 5 0
9 29 9 65 l0 65 35 0 c19 0 35 5 35 10 0 6 -35 10 -85 10 -50 0 -85 -4 -85
-10z"/>
<path d="M744 1106 c-9 -24 1 -129 13 -133 7 -3 13 8 15 24 5 42 49 44 79 4
13 -17 29 -31 36 -31 17 0 16 10 -4 32 -15 17 -15 19 0 36 21 23 22 46 1 66
-20 21 -132 23 -140 2z m121 -31 c0 -17 -8 -20 -47 -23 -41 -3 -48 -1 -48 16
0 28 10 33 55 30 32 -2 40 -7 40 -23z"/>
<path d="M964 1106 c-3 -7 -4 -40 -2 -72 l3 -59 64 -3 c88 -4 114 11 31 18
-50 4 -66 9 -68 22 -3 14 6 17 44 20 67 4 71 28 5 28 -44 0 -51 3 -51 20 0 18
7 20 60 20 33 0 60 4 60 10 0 16 -140 13 -146 -4z"/>
<path d="M1179 1115 c-5 -48 1 -140 10 -143 7 -2 11 14 11 47 0 28 4 51 8 51
5 0 19 -11 32 -25 l24 -25 26 25 c14 14 29 25 33 25 4 0 7 -22 7 -50 0 -27 5
-50 10 -50 6 0 10 32 10 75 0 86 -11 95 -53 45 -14 -16 -30 -30 -36 -30 -5 0
-19 14 -31 30 -18 26 -49 41 -51 25z"/>
<path d="M1435 1095 c-53 -53 -13 -125 70 -125 35 0 52 6 70 25 53 53 13 125
-70 125 -35 0 -52 -6 -70 -25z m117 -12 c25 -22 23 -59 -4 -77 -63 -44 -141
21 -91 76 20 22 70 23 95 1z"/>
<path d="M1660 1045 c0 -72 15 -105 22 -47 5 41 42 42 84 1 37 -36 54 -34 30
4 -15 22 -15 26 -1 37 21 18 19 57 -4 70 -11 5 -45 10 -75 10 l-56 0 0 -75z
m117 44 c23 -23 2 -39 -48 -39 -41 0 -49 3 -49 18 0 10 3 22 7 25 11 11 78 8
90 -4z"/>
<path d="M112 1071 c-9 -5 -12 -23 -10 -52 l3 -44 73 -3 c45 -2 72 1 72 8 0 6
-25 10 -61 10 -56 0 -60 1 -57 22 3 18 10 22 47 22 26 1 46 6 48 14 3 8 -10
12 -45 12 -28 0 -52 4 -54 10 -2 5 -9 6 -16 1z"/>
</g>
</svg>
